<svg width="302" height="457" viewBox="0 0 302 457" fill="none" xmlns="http://www.w3.org/2000/svg">
<path d="M0 20C0 8.95431 8.9543 0 20 0H282C293.046 0 302 8.9543 302 20V437C302 448.046 293.046 457 282 457H20C8.95431 457 0 448.046 0 437V20Z" fill="#EEECEC"/>
<path d="M243.906 35H58.2812C53.1476 35 49 39.7899 49 45.7188V324.406C49 330.335 53.1476 335.125 58.2812 335.125H243.906C249.04 335.125 253.188 330.335 253.188 324.406V45.7188C253.188 39.7899 249.04 35 243.906 35ZM168.496 59.1172H196.34V129.425L182.853 118.07L168.496 129.928V59.1172ZM232.305 311.008H69.8828V59.1172H151.094V158.567C151.094 159.672 151.384 160.778 151.964 161.682C152.316 162.257 152.763 162.746 153.28 163.12C153.797 163.493 154.372 163.745 154.974 163.861C155.575 163.976 156.191 163.952 156.784 163.791C157.378 163.63 157.938 163.334 158.432 162.922L182.737 142.857L206.346 162.754C207.129 163.424 208.086 163.792 209.073 163.792C211.625 163.792 213.713 161.381 213.713 158.433V59.1172H232.276V311.008H232.305Z" fill="black"/>
<path d="M47.6225 401.184H43.734C43.663 400.681 43.518 400.234 43.299 399.843C43.08 399.446 42.7989 399.109 42.4556 398.831C42.1123 398.553 41.7158 398.34 41.266 398.192C40.8221 398.044 40.3397 397.97 39.8189 397.97C38.8778 397.97 38.0581 398.204 37.3597 398.671C36.6613 399.133 36.1198 399.808 35.7351 400.695C35.3504 401.577 35.158 402.648 35.158 403.909C35.158 405.205 35.3504 406.294 35.7351 407.176C36.1257 408.058 36.6702 408.724 37.3686 409.174C38.067 409.623 38.8749 409.848 39.7923 409.848C40.3072 409.848 40.7836 409.78 41.2216 409.644C41.6655 409.508 42.0591 409.31 42.4023 409.049C42.7456 408.783 43.0297 408.46 43.2546 408.082C43.4854 407.703 43.6452 407.271 43.734 406.786L47.6225 406.803C47.5219 407.638 47.2704 408.443 46.8679 409.218C46.4714 409.987 45.9357 410.677 45.261 411.287C44.5922 411.89 43.7932 412.37 42.864 412.725C41.9407 413.074 40.8961 413.249 39.7301 413.249C38.1084 413.249 36.6584 412.882 35.38 412.148C34.1075 411.414 33.1013 410.351 32.3615 408.961C31.6276 407.57 31.2607 405.886 31.2607 403.909C31.2607 401.926 31.6335 400.24 32.3793 398.849C33.125 397.458 34.1371 396.398 35.4155 395.67C36.6939 394.937 38.1321 394.57 39.7301 394.57C40.7836 394.57 41.7602 394.718 42.6598 395.013C43.5653 395.309 44.3673 395.741 45.0657 396.31C45.7641 396.872 46.3323 397.561 46.7702 398.378C47.2141 399.195 47.4982 400.13 47.6225 401.184ZM67.0872 403.909C67.0872 405.892 66.7114 407.579 65.9597 408.969C65.214 410.36 64.196 411.423 62.9057 412.157C61.6214 412.885 60.1773 413.249 58.5733 413.249C56.9576 413.249 55.5075 412.882 54.2232 412.148C52.9389 411.414 51.9238 410.351 51.1781 408.961C50.4324 407.57 50.0595 405.886 50.0595 403.909C50.0595 401.926 50.4324 400.24 51.1781 398.849C51.9238 397.458 52.9389 396.398 54.2232 395.67C55.5075 394.937 56.9576 394.57 58.5733 394.57C60.1773 394.57 61.6214 394.937 62.9057 395.67C64.196 396.398 65.214 397.458 65.9597 398.849C66.7114 400.24 67.0872 401.926 67.0872 403.909ZM63.1898 403.909C63.1898 402.625 62.9975 401.542 62.6127 400.66C62.234 399.778 61.6983 399.109 61.0059 398.653C60.3134 398.198 59.5025 397.97 58.5733 397.97C57.6441 397.97 56.8333 398.198 56.1408 398.653C55.4483 399.109 54.9097 399.778 54.525 400.66C54.1462 401.542 53.9569 402.625 53.9569 403.909C53.9569 405.193 54.1462 406.277 54.525 407.158C54.9097 408.04 55.4483 408.709 56.1408 409.165C56.8333 409.621 57.6441 409.848 58.5733 409.848C59.5025 409.848 60.3134 409.621 61.0059 409.165C61.6983 408.709 62.234 408.04 62.6127 407.158C62.9975 406.277 63.1898 405.193 63.1898 403.909ZM72.1942 394.818L76.5887 408.632H76.7574L81.1608 394.818H85.4221L79.1544 413H74.2006L67.9239 394.818H72.1942ZM87.6105 413V394.818H99.8619V397.988H91.4546V402.32H99.2316V405.489H91.4546V409.831H99.8975V413H87.6105ZM102.918 413V394.818H110.091C111.465 394.818 112.636 395.064 113.607 395.555C114.584 396.04 115.326 396.73 115.835 397.624C116.35 398.511 116.608 399.556 116.608 400.757C116.608 401.965 116.347 403.004 115.827 403.874C115.306 404.738 114.551 405.401 113.563 405.862C112.58 406.324 111.391 406.555 109.994 406.555H105.191V403.465H109.372C110.106 403.465 110.716 403.365 111.201 403.163C111.686 402.962 112.048 402.66 112.284 402.258C112.527 401.855 112.648 401.355 112.648 400.757C112.648 400.154 112.527 399.645 112.284 399.23C112.048 398.816 111.684 398.502 111.192 398.289C110.707 398.07 110.094 397.961 109.355 397.961H106.762V413H102.918ZM112.737 404.726L117.256 413H113.012L108.591 404.726H112.737ZM140.318 394.818V413H136.998L129.088 401.556H128.955V413H125.111V394.818H128.484L136.332 406.253H136.492V394.818H140.318ZM160.202 403.909C160.202 405.892 159.827 407.579 159.075 408.969C158.329 410.36 157.311 411.423 156.021 412.157C154.737 412.885 153.292 413.249 151.689 413.249C150.073 413.249 148.623 412.882 147.338 412.148C146.054 411.414 145.039 410.351 144.293 408.961C143.548 407.57 143.175 405.886 143.175 403.909C143.175 401.926 143.548 400.24 144.293 398.849C145.039 397.458 146.054 396.398 147.338 395.67C148.623 394.937 150.073 394.57 151.689 394.57C153.292 394.57 154.737 394.937 156.021 395.67C157.311 396.398 158.329 397.458 159.075 398.849C159.827 400.24 160.202 401.926 160.202 403.909ZM156.305 403.909C156.305 402.625 156.113 401.542 155.728 400.66C155.349 399.778 154.814 399.109 154.121 398.653C153.429 398.198 152.618 397.97 151.689 397.97C150.759 397.97 149.949 398.198 149.256 398.653C148.564 399.109 148.025 399.778 147.64 400.66C147.261 401.542 147.072 402.625 147.072 403.909C147.072 405.193 147.261 406.277 147.64 407.158C148.025 408.04 148.564 408.709 149.256 409.165C149.949 409.621 150.759 409.848 151.689 409.848C152.618 409.848 153.429 409.621 154.121 409.165C154.814 408.709 155.349 408.04 155.728 407.158C156.113 406.277 156.305 405.193 156.305 403.909ZM161.527 397.988V394.818H176.46V397.988H170.894V413H167.094V397.988H161.527ZM184.705 413V394.818H196.744V397.988H188.549V402.32H195.945V405.489H188.549V413H184.705ZM216.037 403.909C216.037 405.892 215.662 407.579 214.91 408.969C214.164 410.36 213.146 411.423 211.856 412.157C210.572 412.885 209.127 413.249 207.524 413.249C205.908 413.249 204.458 412.882 203.173 412.148C201.889 411.414 200.874 410.351 200.128 408.961C199.383 407.57 199.01 405.886 199.01 403.909C199.01 401.926 199.383 400.24 200.128 398.849C200.874 397.458 201.889 396.398 203.173 395.67C204.458 394.937 205.908 394.57 207.524 394.57C209.127 394.57 210.572 394.937 211.856 395.67C213.146 396.398 214.164 397.458 214.91 398.849C215.662 400.24 216.037 401.926 216.037 403.909ZM212.14 403.909C212.14 402.625 211.948 401.542 211.563 400.66C211.184 399.778 210.649 399.109 209.956 398.653C209.264 398.198 208.453 397.97 207.524 397.97C206.594 397.97 205.783 398.198 205.091 398.653C204.399 399.109 203.86 399.778 203.475 400.66C203.096 401.542 202.907 402.625 202.907 403.909C202.907 405.193 203.096 406.277 203.475 407.158C203.86 408.04 204.399 408.709 205.091 409.165C205.783 409.621 206.594 409.848 207.524 409.848C208.453 409.848 209.264 409.621 209.956 409.165C210.649 408.709 211.184 408.04 211.563 407.158C211.948 406.277 212.14 405.193 212.14 403.909ZM230.115 394.818H233.96V406.626C233.96 407.951 233.643 409.112 233.01 410.106C232.382 411.1 231.503 411.875 230.373 412.432C229.242 412.982 227.926 413.257 226.422 413.257C224.913 413.257 223.593 412.982 222.463 412.432C221.332 411.875 220.453 411.1 219.826 410.106C219.199 409.112 218.885 407.951 218.885 406.626V394.818H222.729V406.297C222.729 406.99 222.88 407.605 223.182 408.144C223.49 408.682 223.922 409.106 224.478 409.413C225.034 409.721 225.682 409.875 226.422 409.875C227.168 409.875 227.816 409.721 228.366 409.413C228.923 409.106 229.352 408.682 229.654 408.144C229.962 407.605 230.115 406.99 230.115 406.297V394.818ZM252.33 394.818V413H249.01L241.1 401.556H240.966V413H237.122V394.818H240.496L248.344 406.253H248.504V394.818H252.33ZM261.951 413H255.506V394.818H262.005C263.833 394.818 265.408 395.182 266.728 395.91C268.047 396.632 269.063 397.671 269.773 399.026C270.489 400.382 270.847 402.003 270.847 403.891C270.847 405.785 270.489 407.413 269.773 408.774C269.063 410.135 268.042 411.18 266.71 411.908C265.384 412.636 263.798 413 261.951 413ZM259.35 409.706H261.792C262.928 409.706 263.884 409.505 264.659 409.103C265.44 408.694 266.026 408.064 266.417 407.212C266.813 406.353 267.012 405.247 267.012 403.891C267.012 402.548 266.813 401.45 266.417 400.598C266.026 399.745 265.443 399.118 264.668 398.716C263.893 398.313 262.937 398.112 261.8 398.112H259.35V409.706Z" fill="#3A1804"/>
</svg>
